<?xml version="1.0" encoding="UTF-8"?>
<!DOCTYPE svg PUBLIC "-//W3C//DTD SVG 1.1//EN" "http://www.w3.org/Graphics/SVG/1.1/DTD/svg11.dtd">
<!-- Creator: CorelDRAW -->
<svg xmlns="http://www.w3.org/2000/svg" xml:space="preserve" width="210mm" height="297mm" version="1.1" style="shape-rendering:geometricPrecision; text-rendering:geometricPrecision; image-rendering:optimizeQuality; fill-rule:evenodd; clip-rule:evenodd"
viewBox="0 0 21000 29700"
 xmlns:xlink="http://www.w3.org/1999/xlink"
 xmlns:xodm="http://www.corel.com/coreldraw/odm/2003">
 <defs>
  <style type="text/css">
   <![CDATA[
    .fil1 {fill:#009731;fill-rule:nonzero}
    .fil0 {fill:#303030;fill-rule:nonzero}
   ]]>
  </style>
 </defs>
 <g id="Livello_x0020_1">
  <metadata id="CorelCorpID_0Corel-Layer"/>
  <path class="fil0" d="M12669.02 7291.07l-1176.89 -4505.05c-497.65,-1708.82 -2190.66,-2742.96 -3938.09,-2405.42l-1811.5 349.97c-14.28,2.8 -28.32,5.62 -42.58,8.56 -1732.33,357.47 -2919.47,2001.27 -2708.31,3762.17l692.27 4641.42c33.28,277.14 285.03,474.83 562.2,441.7 14.31,-1.87 28.46,-4.17 42.49,-7.06 254.52,-52.52 430.62,-292.31 399.21,-555.13l-692.28 -4641.42c-148.83,-1239.49 677.64,-2397.56 1904.13,-2650.65 11.51,-2.37 23.1,-4.69 34.65,-6.84l1811.48 -350.05c1231.71,-237.92 2424.96,490.9 2775.67,1695.08l1176.74 4504.69c73.89,254.21 329.13,407.69 584.61,354.97 13.96,-2.88 27.94,-6.38 41.8,-10.48 268.08,-77.92 422.32,-358.38 344.4,-626.46z"/>
  <path class="fil1" d="M630.37 18975.78c-203.44,-1811.55 -103.22,-3427.95 300.62,-4849.06 403.84,-1421.15 1007.81,-2635.5 1811.92,-3642.95 804.05,-1007.54 1768.68,-1810.28 2893.89,-2408.32 1125.27,-598.09 2308.94,-966.84 3551.13,-1106.35 2898.52,-325.42 5288.41,303.77 7169.66,1887.61 1881.2,1583.89 3015.08,4096.79 3401.58,7538.77 37.77,336.44 66.19,706.66 85.31,1110.71 19.27,404 33.3,762.77 42.33,1076.26l-13120.96 1473.31c263.11,1175.96 925.5,2058.07 1987.41,2646.38 1061.91,588.32 2421.03,789.45 4077.31,603.5 1061.02,-119.13 2091.84,-333.13 3092.29,-642.05 1000.41,-308.82 1808.14,-641.95 2423.14,-999.25l1303.86 4609.95c-293.11,190.1 -689.75,391.86 -1189.98,605.33 -500.12,213.37 -1060.71,413.88 -1681.64,601.56 -620.99,187.63 -1289.42,360.92 -2005.33,519.98 -715.91,158.95 -1436.18,279.19 -2160.81,360.61 -1837.39,206.28 -3466.08,113.93 -4885.72,-276.93 -1419.68,-390.92 -2628.99,-1008.55 -3627.93,-1852.89 -998.93,-844.39 -1784.49,-1889.55 -2356.89,-3135.58 -572.25,-1246.03 -942.62,-2619.54 -1111.19,-4120.59zm13732.82 -4149.11c-81.1,-488.83 -218.94,-958.12 -413.61,-1407.98 -194.62,-449.85 -461.09,-839.24 -799.43,-1168.12 -338.28,-328.88 -746.9,-584.38 -1226.06,-766.45 -478.96,-182.06 -1054.93,-235.32 -1727.82,-159.79 -646.99,72.7 -1191.03,245.1 -1632.16,517.46 -441.14,272.26 -796.65,606.97 -1066.54,1004.13 -269.84,397.22 -461.99,844.61 -576.45,1342.31 -114.46,497.71 -182.9,996.68 -205.33,1497.17l77.32 -8.67c33.04,-227.87 75.75,-455.42 128.01,-682.71 114.46,-497.71 306.61,-945.09 576.45,-1342.31 269.89,-397.17 625.4,-731.88 1066.54,-1004.13 441.13,-272.36 985.17,-444.81 1632.16,-517.46 672.89,-75.54 1248.86,-22.27 1727.82,159.79 479.16,182.06 887.78,437.56 1226.06,766.44 338.34,328.88 604.81,718.28 799.43,1168.13 88.14,203.65 164.57,411.3 229.45,622.88l184.16 -20.69z"/>
 </g>
</svg>
