<?xml version="1.0" encoding="UTF-8"?>
<!DOCTYPE svg PUBLIC "-//W3C//DTD SVG 1.1//EN" "http://www.w3.org/Graphics/SVG/1.1/DTD/svg11.dtd">
<!-- Creator: CorelDRAW -->
<svg xmlns="http://www.w3.org/2000/svg" xml:space="preserve" width="210mm" height="297mm" version="1.1" style="shape-rendering:geometricPrecision; text-rendering:geometricPrecision; image-rendering:optimizeQuality; fill-rule:evenodd; clip-rule:evenodd"
viewBox="0 0 21000 29700"
 xmlns:xlink="http://www.w3.org/1999/xlink"
 xmlns:xodm="http://www.corel.com/coreldraw/odm/2003">
 <defs>
  <style type="text/css">
   <![CDATA[
    .fil0 {fill:#303030;fill-rule:nonzero}
   ]]>
  </style>
 </defs>
 <g id="Livello_x0020_1">
  <metadata id="CorelCorpID_0Corel-Layer"/>
  <path class="fil0" d="M1245.98 18374.87c-185.82,-1654.57 -94.28,-3130.9 274.57,-4428.85 368.84,-1298 920.48,-2407.13 1654.9,-3327.26 291.73,-365.55 606.6,-701.58 944.62,-1008.09 -45.06,-61.73 -75.4,-135.5 -85.17,-216.74l-632.28 -4239.21c-192.82,-1608.3 891.45,-3109.63 2473.62,-3436.17 13.04,-2.69 25.85,-5.28 38.9,-7.82l1654.51 -319.63c1596.01,-308.28 3142.32,636.22 3596.84,2196.95l1022.75 3914.95c1293.64,255.55 2434.04,798.68 3421.09,1629.69 1718.17,1446.62 2753.79,3741.78 3106.81,6885.49 34.49,307.29 60.44,645.42 77.91,1014.46 17.61,368.98 30.42,696.67 38.66,982.98l-11983.93 1345.66c240.31,1074.05 845.3,1879.71 1815.19,2417.03 969.89,537.35 2211.23,721.04 3723.97,551.21 969.08,-108.81 1910.58,-304.26 2824.34,-586.42 913.69,-282.04 1651.44,-586.31 2213.14,-912.64l1190.89 4210.45c-267.71,173.63 -629.99,357.9 -1086.87,552.88 -456.78,194.89 -968.8,378.01 -1535.92,549.44 -567.18,171.37 -1177.68,329.63 -1831.55,474.91 -653.86,145.19 -1311.73,255 -1973.55,329.36 -1678.18,188.39 -3165.75,104.07 -4462.35,-252.92 -1296.66,-357.05 -2401.16,-921.15 -3313.54,-1692.34 -912.37,-771.23 -1629.86,-1725.81 -2152.66,-2863.85 -522.65,-1138.05 -860.94,-2392.53 -1014.89,-3763.52zm3660.54 -9394.83c289.96,-204.89 593.97,-391.85 912.04,-560.9 1027.77,-546.28 2108.86,-883.07 3243.41,-1010.49 749.78,-84.17 1462.29,-98.37 2137.53,-42.64l-919.55 -3520.08c-320.35,-1099.83 -1410.17,-1765.51 -2535.13,-1548.21l-1654.51 319.71c-10.57,1.97 -21.18,4.12 -31.67,6.28 -1120.2,231.17 -1875.01,1288.84 -1739.09,2420.96l586.97 3935.37zm8882.23 5605.26c-74.08,-446.46 -199.96,-875.09 -377.76,-1285.95 -177.76,-410.88 -421.14,-766.53 -730.16,-1066.9 -308.97,-300.38 -682.18,-533.74 -1119.81,-700.04 -437.46,-166.27 -963.52,-214.92 -1578.1,-145.94 -590.93,66.41 -1087.82,223.86 -1490.72,472.62 -402.91,248.67 -727.61,554.36 -974.11,917.13 -246.45,362.8 -421.95,771.4 -526.5,1225.98 -104.53,454.57 -167.04,910.3 -187.54,1367.43l70.63 -7.91c30.18,-208.13 69.18,-415.97 116.91,-623.55 104.55,-454.58 280.05,-863.2 526.5,-1226 246.5,-362.74 571.2,-668.45 974.11,-917.11 402.9,-248.76 899.79,-406.28 1490.72,-472.63 614.58,-68.99 1140.64,-20.34 1578.1,145.96 437.63,166.28 810.84,399.63 1119.81,700.02 309.02,300.37 552.4,656.03 730.16,1066.89 80.51,186.01 150.31,375.65 209.57,568.92l168.19 -18.92z"/>
 </g>
</svg>
