<?xml version="1.0" encoding="UTF-8"?>
<!DOCTYPE svg PUBLIC "-//W3C//DTD SVG 1.1//EN" "http://www.w3.org/Graphics/SVG/1.1/DTD/svg11.dtd">
<!-- Creator: CorelDRAW -->
<svg xmlns="http://www.w3.org/2000/svg" xml:space="preserve" width="297mm" height="210mm" version="1.1" style="shape-rendering:geometricPrecision; text-rendering:geometricPrecision; image-rendering:optimizeQuality; fill-rule:evenodd; clip-rule:evenodd"
viewBox="0 0 29700 21000"
 xmlns:xlink="http://www.w3.org/1999/xlink"
 xmlns:xodm="http://www.corel.com/coreldraw/odm/2003">
 <defs>
  <style type="text/css">
   <![CDATA[
    .fil1 {fill:#009731;fill-rule:nonzero}
    .fil0 {fill:#303030;fill-rule:nonzero}
   ]]>
  </style>
 </defs>
 <g id="Livello_x0020_1">
  <metadata id="CorelCorpID_0Corel-Layer"/>
  <g id="_105553349233792">
   <g>
    <path class="fil0" d="M11477.21 7446.59l-224.05 -857.64c-94.74,-325.31 -417.05,-522.18 -749.71,-457.92l-344.86 66.62c-2.72,0.53 -5.39,1.07 -8.11,1.63 -329.78,68.06 -555.78,380.99 -515.59,716.22l131.79 883.6c6.34,52.76 54.27,90.39 107.03,84.09 2.73,-0.36 5.42,-0.8 8.09,-1.35 48.45,-10 81.98,-55.64 76,-105.68l-131.79 -883.6c-28.33,-235.97 129,-456.43 362.49,-504.61 2.19,-0.45 4.4,-0.9 6.6,-1.31l344.86 -66.64c234.48,-45.29 461.64,93.46 528.41,322.7l224.02 857.57c14.07,48.4 62.66,77.62 111.29,67.58 2.66,-0.55 5.32,-1.21 7.96,-1.99 51.04,-14.84 80.4,-68.23 65.57,-119.27z"/>
    <path class="fil1" d="M9185.37 9671.05c-38.73,-344.87 -19.65,-652.59 57.23,-923.13 76.88,-270.55 191.86,-501.73 344.94,-693.52 153.07,-191.81 336.71,-344.63 550.92,-458.48 214.22,-113.86 439.56,-184.06 676.04,-210.62 551.8,-61.95 1006.77,57.83 1364.91,359.35 358.13,301.53 573.99,779.92 647.57,1435.18 7.19,64.05 12.6,134.53 16.24,211.45 3.67,76.91 6.34,145.21 8.06,204.89l-2497.88 280.48c50.09,223.87 176.19,391.8 378.35,503.8 202.16,112 460.9,150.29 776.21,114.89 201.99,-22.68 398.23,-63.42 588.69,-122.23 190.45,-58.79 344.22,-122.21 461.3,-190.23l248.22 877.61c-55.8,36.19 -131.31,74.6 -226.54,115.24 -95.21,40.62 -201.93,78.79 -320.14,114.52 -118.22,35.72 -245.47,68.71 -381.76,98.99 -136.29,30.26 -273.41,53.15 -411.36,68.65 -349.79,39.27 -659.85,21.69 -930.11,-52.72 -270.27,-74.42 -500.49,-192 -690.66,-352.74 -190.17,-160.75 -339.72,-359.72 -448.69,-596.93 -108.94,-237.21 -179.45,-498.69 -211.54,-784.45zm2614.36 -789.88c-15.44,-93.06 -41.68,-182.4 -78.74,-268.04 -37.05,-85.64 -87.78,-159.77 -152.19,-222.38 -64.4,-62.61 -142.19,-111.25 -233.41,-145.91 -91.18,-34.66 -200.83,-44.8 -328.93,-30.42 -123.17,13.84 -226.74,46.66 -310.72,98.51 -83.98,51.83 -151.66,115.55 -203.04,191.16 -51.37,75.62 -87.95,160.79 -109.74,255.54 -21.79,94.75 -34.82,189.74 -39.09,285.02l14.72 -1.65c6.29,-43.38 14.42,-86.7 24.37,-129.97 21.79,-94.75 58.37,-179.92 109.74,-255.54 51.38,-75.61 119.06,-139.33 203.04,-191.16 83.98,-51.85 187.55,-84.68 310.72,-98.51 128.1,-14.38 237.75,-4.24 328.93,30.42 91.22,34.66 169.01,83.3 233.41,145.91 64.41,62.61 115.14,136.74 152.19,222.38 16.78,38.77 31.33,78.3 43.68,118.58l35.06 -3.94z"/>
    <path class="fil0" d="M4339.09 9467.52c0,-342.08 -76.84,-615.99 -230.53,-821.74 -153.69,-205.75 -381.75,-308.62 -684.17,-308.62 -99.15,0 -190.87,3.72 -275.15,11.16 -84.28,7.43 -153.69,16.11 -208.23,26.02l0 2000.45c69.41,44.62 159.89,81.8 271.44,111.55 111.55,29.74 224.34,44.62 338.36,44.62 525.52,0 788.28,-354.48 788.28,-1063.44zm1130.36 -29.74c0,302.42 -37.18,577.57 -111.55,825.46 -74.36,247.88 -183.43,461.07 -327.21,639.55 -143.77,178.47 -322.25,317.29 -535.43,416.44 -213.18,99.16 -458.59,148.74 -736.22,148.74 -153.69,0 -297.47,-14.88 -431.32,-44.62 -133.86,-29.75 -262.76,-71.89 -386.71,-126.43l0 1472.45 -1108.05 0 0 -5153.56c99.16,-29.74 213.18,-58.25 342.08,-85.52 128.91,-27.27 264,-50.82 405.3,-70.65 141.29,-19.83 285.07,-35.94 431.32,-48.33 146.25,-12.4 286.31,-18.6 420.17,-18.6 322.25,0 609.8,48.34 862.64,145.02 252.85,96.67 466.03,233.01 639.55,409.01 173.52,176 306.14,390.42 397.86,643.27 91.71,252.84 137.57,535.43 137.57,847.77z"/>
    <path class="fil0" d="M8682.07 8463.58c-99.15,-24.79 -215.66,-50.81 -349.52,-78.08 -133.86,-27.27 -277.63,-40.9 -431.32,-40.9 -69.41,0 -152.45,6.2 -249.13,18.59 -96.67,12.39 -169.8,26.03 -219.38,40.9l0 2989.51 -1108.05 0 0 -3703.42c198.31,-69.41 432.56,-135.1 702.76,-197.07 270.2,-61.97 571.38,-92.96 903.54,-92.96 59.5,0 131.38,3.72 215.67,11.16 84.28,7.43 168.56,17.35 252.84,29.74 84.28,12.4 168.56,27.27 252.84,44.62 84.29,17.35 156.17,38.42 215.67,63.21l-185.92 914.7z"/>
    <path class="fil0" d="M14854.45 10597.88c203.26,0 347.04,-19.83 431.32,-59.49 84.28,-39.66 126.42,-116.5 126.42,-230.53 0,-89.24 -54.53,-167.33 -163.6,-234.25 -109.07,-66.93 -275.16,-142.54 -498.26,-226.82 -173.52,-64.45 -330.92,-131.38 -472.22,-200.79 -141.29,-69.41 -261.52,-152.45 -360.67,-249.12 -99.16,-96.68 -176,-211.95 -230.54,-345.81 -54.53,-133.85 -81.8,-294.98 -81.8,-483.37 0,-366.88 136.34,-656.9 409.01,-870.09 272.68,-213.18 646.99,-319.77 1122.93,-319.77 237.97,0 466.02,21.07 684.16,63.21 218.14,42.14 391.66,88 520.56,137.58l-193.35 862.64c-128.9,-44.62 -268.95,-84.28 -420.16,-118.98 -151.21,-34.71 -321.02,-52.06 -509.41,-52.06 -347.04,0 -520.56,96.68 -520.56,290.03 0,44.62 7.43,84.28 22.31,118.98 14.87,34.71 44.62,68.17 89.24,100.4 44.62,32.22 105.35,66.93 182.19,104.11 76.85,37.18 174.76,78.09 293.75,122.7 242.93,89.24 443.72,177.24 602.36,264 158.65,86.76 283.83,180.96 375.55,282.59 91.72,101.64 156.17,214.43 193.35,338.37 37.18,123.94 55.78,267.72 55.78,431.32 0,386.7 -145.02,679.21 -435.04,877.52 -290.03,198.31 -700.28,297.46 -1230.76,297.46 -347.04,0 -635.83,-29.74 -866.36,-89.24 -230.54,-59.49 -390.42,-109.07 -479.66,-148.73l185.91 -899.83c188.4,74.37 381.75,132.62 580.06,174.76 198.3,42.14 394.14,63.21 587.49,63.21z"/>
    <path class="fil0" d="M17301.09 6507.76l1108.05 -178.48 0 1152.67 1331.15 0 0 922.14 -1331.15 0 0 1375.77c0,233.01 40.9,418.93 122.7,557.74 81.81,138.82 246.65,208.23 494.54,208.23 118.98,0 241.69,-11.16 368.11,-33.47 126.42,-22.31 241.69,-53.29 345.8,-92.95l156.17 862.64c-133.86,54.54 -282.59,101.63 -446.2,141.3 -163.6,39.66 -364.39,59.49 -602.36,59.49 -302.42,0 -552.79,-40.9 -751.1,-122.7 -198.31,-81.81 -356.95,-195.83 -475.94,-342.09 -118.98,-146.25 -202.03,-323.49 -249.12,-531.71 -47.1,-208.23 -70.65,-438.76 -70.65,-691.61l0 -3286.97z"/>
    <path class="fil0" d="M24150.18 9430.34c0,307.38 -44.62,588.73 -133.86,844.05 -89.23,255.33 -218.14,473.47 -386.7,654.42 -168.56,180.96 -370.59,321.02 -606.08,420.17 -235.49,99.15 -499.49,148.73 -792,148.73 -287.54,0 -549.06,-49.58 -784.56,-148.73 -235.49,-99.15 -437.52,-239.21 -606.08,-420.17 -168.56,-180.95 -299.94,-399.09 -394.14,-654.42 -94.2,-255.32 -141.29,-536.67 -141.29,-844.05 0,-307.38 48.33,-587.49 145.01,-840.33 96.68,-252.85 230.53,-468.51 401.58,-646.99 171.04,-178.48 374.3,-317.29 609.8,-416.45 235.49,-99.15 492.05,-148.73 769.68,-148.73 282.59,0 541.63,49.58 777.13,148.73 235.49,99.16 437.52,237.97 606.08,416.45 168.56,178.48 299.94,394.14 394.14,646.99 94.2,252.84 141.29,532.95 141.29,840.33zm-1130.36 0c0,-342.08 -68.17,-611.04 -204.5,-806.87 -136.34,-195.83 -330.93,-293.75 -583.78,-293.75 -252.84,0 -448.67,97.92 -587.49,293.75 -138.81,195.83 -208.22,464.79 -208.22,806.87 0,342.08 69.41,613.52 208.22,814.31 138.82,200.78 334.65,301.18 587.49,301.18 252.85,0 447.44,-100.4 583.78,-301.18 136.33,-200.79 204.5,-472.23 204.5,-814.31z"/>
   </g>
   <path class="fil1" d="M25181.47 11192.21c0,101.92 -32.27,179.49 -96.82,232.71 -64.55,53.22 -137.59,79.83 -219.12,79.83 -81.53,0 -154.57,-26.61 -219.12,-79.83 -64.55,-53.22 -96.82,-130.79 -96.82,-232.71 0,-101.92 32.27,-179.49 96.82,-232.71 64.55,-53.23 137.59,-79.84 219.12,-79.84 81.53,0 154.57,26.61 219.12,79.84 64.55,53.22 96.82,130.79 96.82,232.71z"/>
   <path class="fil0" d="M26075.54 11489.48l-506.19 0 0 -1786.95 506.19 0 0 1786.95zm47.56 -2303.33c0,92.86 -30.01,165.9 -90.03,219.12 -60.02,53.23 -130.79,79.84 -212.33,79.84 -81.53,0 -152.31,-26.61 -212.32,-79.84 -60.02,-53.22 -90.03,-126.26 -90.03,-219.12 0,-92.86 30.01,-165.9 90.03,-219.12 60.01,-53.22 130.79,-79.84 212.32,-79.84 81.54,0 152.31,26.62 212.33,79.84 60.02,53.22 90.03,126.26 90.03,219.12z"/>
   <path class="fil0" d="M26534.17 9228.6l506.19 -81.53 0 526.57 608.11 0 0 421.26 -608.11 0 0 628.49c0,106.45 18.68,191.38 56.05,254.79 37.37,63.42 112.68,95.12 225.92,95.12 54.36,0 110.41,-5.09 168.16,-15.28 57.76,-10.19 110.41,-24.35 157.98,-42.47l71.34 394.08c-61.15,24.91 -129.1,46.43 -203.84,64.55 -74.74,18.12 -166.46,27.18 -275.17,27.18 -138.16,0 -252.53,-18.69 -343.12,-56.06 -90.6,-37.37 -163.07,-89.46 -217.43,-156.27 -54.35,-66.81 -92.29,-147.78 -113.81,-242.9 -21.51,-95.13 -32.27,-200.44 -32.27,-315.95l0 -1501.58z"/>
  </g>
  <path class="fil1" d="M9039.12 13734.88l-1171.96 0c10.66,145.6 66.59,263.24 167.81,352.92 101.21,89.67 229.06,134.5 383.55,134.5 87.01,0 166.91,-15.53 239.72,-46.61 72.8,-31.07 135.84,-76.8 189.11,-137.17l106.54 122.52c-62.15,74.58 -139.84,131.4 -233.06,170.47 -93.23,39.07 -195.77,58.6 -307.64,58.6 -143.83,0 -271.24,-30.63 -382.22,-91.89 -110.98,-61.27 -197.54,-146.06 -259.69,-254.37 -62.15,-108.32 -93.23,-230.84 -93.23,-367.57 0,-136.73 29.75,-259.25 89.23,-367.57 59.49,-108.32 141.17,-192.66 245.05,-253.04 103.88,-60.37 220.63,-90.56 350.25,-90.56 129.63,0 245.94,30.19 348.93,90.56 102.99,60.38 183.78,144.28 242.38,251.71 58.6,107.43 87.9,230.39 87.9,368.9l-2.67 58.6zm-676.54 -607.29c-134.95,0 -248.15,43.06 -339.6,129.18 -91.45,86.12 -143.39,198.44 -155.82,336.94l993.5 0c-12.43,-138.5 -64.36,-250.82 -155.81,-336.94 -91.45,-86.12 -205.54,-129.18 -342.27,-129.18zm1515.56 -162.48c182.9,0 323.18,45.73 420.84,137.18 97.66,91.44 146.5,226.84 146.5,406.19l0 868.31 -181.12 0 0 -218.41c-42.62,72.8 -105.21,129.63 -187.78,170.47 -82.57,40.84 -180.68,61.26 -294.33,61.26 -156.26,0 -280.56,-37.29 -372.89,-111.87 -92.34,-74.58 -138.51,-173.13 -138.51,-295.65 0,-118.98 43.07,-214.86 129.19,-287.67 86.12,-72.8 223.29,-109.2 411.51,-109.2l444.81 0 0 -85.23c0,-120.75 -33.73,-212.64 -101.21,-275.68 -67.48,-63.04 -166.03,-94.56 -295.65,-94.56 -88.79,0 -174.02,14.65 -255.7,43.95 -81.68,29.3 -151.82,69.7 -210.42,121.19l-85.24 -141.16c71.03,-60.38 156.27,-106.99 255.7,-139.84 99.44,-32.85 204.21,-49.28 314.3,-49.28zm-66.59 1275.84c106.54,0 197.99,-24.42 274.35,-73.25 76.35,-48.83 133.17,-119.41 170.46,-211.75l0 -229.06 -439.48 0c-239.72,0 -359.58,83.45 -359.58,250.37 0,81.68 31.08,146.05 93.23,193.11 62.15,47.05 149.15,70.58 261.02,70.58zm1329.11 -990.84c44.39,-94.11 110.54,-165.14 198.43,-213.08 87.9,-47.94 196.66,-71.92 326.29,-71.92l0 183.79 -45.28 -2.67c-147.38,0 -262.8,45.28 -346.26,135.85 -83.46,90.56 -125.19,217.52 -125.19,380.88l0 713.83 -189.11 0 0 -1401.02 181.12 0 0 274.34zm1579.48 -285c175.79,0 315.63,51.05 419.51,153.16 103.87,102.1 155.81,250.81 155.81,446.14l0 812.38 -189.11 0 0 -793.73c0,-145.61 -36.4,-256.59 -109.2,-332.95 -72.81,-76.35 -176.68,-114.53 -311.64,-114.53 -150.93,0 -270.35,44.84 -358.24,134.51 -87.9,89.67 -131.85,213.53 -131.85,371.56l0 735.14 -189.11 0 0 -1401.02 181.12 0 0 258.36c51.5,-85.23 122.97,-151.38 214.42,-198.43 91.44,-47.06 197.54,-70.59 318.29,-70.59zm3084.38 10.66l0 1230.55c0,237.95 -58.15,414.18 -174.46,528.72 -116.31,114.53 -291.66,171.79 -526.05,171.79 -129.62,0 -252.59,-19.08 -368.9,-57.26 -116.3,-38.18 -210.86,-91.01 -283.66,-158.48l95.88 -143.83c67.48,60.37 149.61,107.43 246.38,141.16 96.78,33.74 198.43,50.61 304.98,50.61 177.57,0 308.08,-41.28 391.54,-123.85 83.45,-82.57 125.18,-210.87 125.18,-384.88l0 -178.46c-58.59,88.78 -135.39,156.26 -230.39,202.43 -95,46.17 -200.21,69.25 -315.63,69.25 -131.4,0 -250.82,-28.86 -358.25,-86.57 -107.43,-57.71 -191.77,-138.5 -253.04,-242.38 -61.26,-103.88 -91.89,-221.52 -91.89,-352.92 0,-131.4 30.63,-248.59 91.89,-351.58 61.27,-102.99 145.17,-182.9 251.71,-239.72 106.54,-56.83 226.4,-85.24 359.58,-85.24 118.97,0 226.4,23.98 322.29,71.92 95.88,47.94 173.13,117.2 231.72,207.76l0 -269.02 181.12 0zm-716.49 1179.95c101.22,0 192.66,-21.76 274.35,-65.26 81.68,-43.51 145.16,-104.32 190.44,-182.45 45.28,-78.13 67.92,-166.92 67.92,-266.36 0,-99.44 -22.64,-187.78 -67.92,-265.02 -45.28,-77.24 -108.32,-137.62 -189.11,-181.12 -80.8,-43.5 -172.69,-65.26 -275.68,-65.26 -101.21,0 -192.22,21.31 -273.01,63.93 -80.79,42.61 -143.83,102.99 -189.11,181.12 -45.28,78.13 -67.92,166.91 -67.92,266.35 0,99.44 22.64,188.23 67.92,266.36 45.28,78.13 108.32,138.94 189.11,182.45 80.79,43.5 171.8,65.26 273.01,65.26zm1427.66 -905.61c44.39,-94.11 110.54,-165.14 198.43,-213.08 87.9,-47.94 196.66,-71.92 326.29,-71.92l0 183.79 -45.28 -2.67c-147.38,0 -262.8,45.28 -346.26,135.85 -83.46,90.56 -125.19,217.52 -125.19,380.88l0 713.83 -189.11 0 0 -1401.02 181.12 0 0 274.34zm2072.23 484.77l-1171.96 0c10.66,145.6 66.59,263.24 167.81,352.92 101.21,89.67 229.06,134.5 383.55,134.5 87.01,0 166.91,-15.53 239.72,-46.61 72.8,-31.07 135.84,-76.8 189.11,-137.17l106.54 122.52c-62.15,74.58 -139.84,131.4 -233.06,170.47 -93.23,39.07 -195.77,58.6 -307.64,58.6 -143.83,0 -271.24,-30.63 -382.22,-91.89 -110.98,-61.27 -197.54,-146.06 -259.69,-254.37 -62.15,-108.32 -93.23,-230.84 -93.23,-367.57 0,-136.73 29.75,-259.25 89.23,-367.57 59.49,-108.32 141.17,-192.66 245.05,-253.04 103.88,-60.37 220.63,-90.56 350.25,-90.56 129.63,0 245.94,30.19 348.93,90.56 102.99,60.38 183.78,144.28 242.38,251.71 58.6,107.43 87.9,230.39 87.9,368.9l-2.67 58.6zm-676.54 -607.29c-134.95,0 -248.15,43.06 -339.6,129.18 -91.45,86.12 -143.39,198.44 -155.82,336.94l993.5 0c-12.43,-138.5 -64.36,-250.82 -155.81,-336.94 -91.45,-86.12 -205.54,-129.18 -342.27,-129.18zm2285.32 607.29l-1171.96 0c10.66,145.6 66.59,263.24 167.81,352.92 101.21,89.67 229.06,134.5 383.55,134.5 87.01,0 166.91,-15.53 239.72,-46.61 72.8,-31.07 135.84,-76.8 189.11,-137.17l106.54 122.52c-62.15,74.58 -139.84,131.4 -233.06,170.47 -93.23,39.07 -195.77,58.6 -307.64,58.6 -143.83,0 -271.24,-30.63 -382.22,-91.89 -110.98,-61.27 -197.54,-146.06 -259.69,-254.37 -62.15,-108.32 -93.23,-230.84 -93.23,-367.57 0,-136.73 29.75,-259.25 89.23,-367.57 59.49,-108.32 141.17,-192.66 245.05,-253.04 103.88,-60.37 220.63,-90.56 350.25,-90.56 129.63,0 245.94,30.19 348.93,90.56 102.99,60.38 183.78,144.28 242.38,251.71 58.6,107.43 87.9,230.39 87.9,368.9l-2.67 58.6zm-676.54 -607.29c-134.95,0 -248.15,43.06 -339.6,129.18 -91.45,86.12 -143.39,198.44 -155.82,336.94l993.5 0c-12.43,-138.5 -64.36,-250.82 -155.81,-336.94 -91.45,-86.12 -205.54,-129.18 -342.27,-129.18zm1779.25 -162.48c175.79,0 315.63,51.05 419.51,153.16 103.87,102.1 155.81,250.81 155.81,446.14l0 812.38 -189.11 0 0 -793.73c0,-145.61 -36.4,-256.59 -109.2,-332.95 -72.81,-76.35 -176.68,-114.53 -311.64,-114.53 -150.93,0 -270.35,44.84 -358.24,134.51 -87.9,89.67 -131.85,213.53 -131.85,371.56l0 735.14 -189.11 0 0 -1401.02 181.12 0 0 258.36c51.5,-85.23 122.97,-151.38 214.42,-198.43 91.44,-47.06 197.54,-70.59 318.29,-70.59z"/>
 </g>
</svg>
