<?xml version="1.0" encoding="UTF-8"?>
<!DOCTYPE svg PUBLIC "-//W3C//DTD SVG 1.1//EN" "http://www.w3.org/Graphics/SVG/1.1/DTD/svg11.dtd">
<!-- Creator: CorelDRAW -->
<svg xmlns="http://www.w3.org/2000/svg" xml:space="preserve" width="410mm" height="410mm" version="1.1" style="shape-rendering:geometricPrecision; text-rendering:geometricPrecision; image-rendering:optimizeQuality; fill-rule:evenodd; clip-rule:evenodd"
viewBox="0 0 41000 41000"
 xmlns:xlink="http://www.w3.org/1999/xlink"
 xmlns:xodm="http://www.corel.com/coreldraw/odm/2003">
 <defs>
  <style type="text/css">
   <![CDATA[
    .fil0 {fill:white}
   ]]>
  </style>
 </defs>
 <g id="Livello_x0020_1">
  <metadata id="CorelCorpID_0Corel-Layer"/>
  <path class="fil0" d="M20493.73 506.27c11045.69,0 20000,8954.31 20000,20000 0,11045.69 -8954.31,20000 -20000,20000 -11045.69,0 -20000,-8954.31 -20000,-20000 0,-11045.69 8954.31,-20000 20000,-20000zm-10541.74 25044.61c-223.95,-1994.03 -113.64,-3773.24 330.88,-5337.49 444.52,-1564.28 1109.33,-2900.97 1994.43,-4009.88 351.59,-440.54 731.05,-845.51 1138.42,-1214.91 -54.3,-74.38 -90.87,-163.3 -102.64,-261.2l-762 -5108.94c-232.38,-1938.26 1074.33,-3747.6 2981.11,-4141.13 15.71,-3.25 31.15,-6.37 46.88,-9.43l1993.95 -385.2c1923.45,-371.53 3786.99,766.75 4334.77,2647.68l1232.58 4718.14c1559.05,307.98 2933.41,962.54 4122.96,1964.04 2070.67,1743.41 3318.76,4509.45 3744.2,8298.13 41.57,370.33 72.85,777.82 93.9,1222.58 21.23,444.69 36.66,839.61 46.59,1184.65l-14442.55 1621.74c289.61,1294.39 1018.71,2265.36 2187.59,2912.91 1168.87,647.59 2664.88,868.97 4487.98,664.29 1167.9,-131.13 2302.56,-366.68 3403.79,-706.72 1101.14,-339.91 1990.24,-706.61 2667.18,-1099.88l1435.22 5074.26c-322.64,209.26 -759.24,431.34 -1309.86,666.32 -550.49,234.87 -1167.56,455.56 -1851.03,662.16 -683.54,206.53 -1419.3,397.26 -2207.31,572.35 -788.02,174.97 -1580.85,307.31 -2378.45,396.93 -2022.46,227.04 -3815.24,125.41 -5377.84,-304.81 -1562.68,-430.31 -2893.79,-1110.13 -3993.36,-2039.55 -1099.55,-929.45 -1964.24,-2079.87 -2594.29,-3451.4 -629.88,-1371.52 -1037.58,-2883.38 -1223.1,-4535.64zm4411.54 -11322.28c349.44,-246.92 715.81,-472.24 1099.15,-675.98 1238.62,-658.36 2541.5,-1064.24 3908.82,-1217.81 903.61,-101.44 1762.3,-118.54 2576.08,-51.38l-1108.21 -4242.25c-386.07,-1325.49 -1699.49,-2127.74 -3055.24,-1865.86l-1993.95 385.31c-12.74,2.37 -25.53,4.97 -38.17,7.56 -1350.02,278.6 -2259.69,1553.27 -2095.89,2917.66l707.41 4742.75zm10704.51 6755.24c-89.29,-538.06 -240.99,-1054.62 -455.26,-1549.78 -214.24,-495.17 -507.55,-923.79 -879.96,-1285.79 -372.37,-362 -822.15,-643.24 -1349.56,-843.66 -527.2,-200.39 -1161.19,-259.01 -1901.87,-175.87 -712.16,80.02 -1310.99,269.77 -1796.54,569.57 -485.59,299.69 -876.89,668.11 -1173.96,1105.29 -297.02,437.23 -508.53,929.66 -634.53,1477.5 -125.97,547.83 -201.31,1097.07 -226.01,1647.98l85.12 -9.53c36.37,-250.84 83.37,-501.31 140.89,-751.48 126,-547.85 337.51,-1040.29 634.53,-1477.53 297.07,-437.16 688.37,-805.59 1173.96,-1105.26 485.55,-299.79 1084.38,-489.63 1796.54,-569.6 740.68,-83.15 1374.67,-24.51 1901.87,175.91 527.41,200.4 977.19,481.61 1349.56,843.63 372.41,362 665.72,790.62 879.96,1285.78 97.02,224.17 181.14,452.71 252.56,685.64l202.7 -22.8z"/>
 </g>
</svg>
